<?xml version="1.0" encoding="UTF-8" standalone="no"?>
<svg
   version="1.1"
   id="svg102"
   sodipodi:docname="letterTiles_vector.svg"
   width="128"
   height="128"
   inkscape:version="1.1.2 (0a00cf5339, 2022-02-04)"
   xmlns:inkscape="http://www.inkscape.org/namespaces/inkscape"
   xmlns:sodipodi="http://sodipodi.sourceforge.net/DTD/sodipodi-0.dtd"
   xmlns="http://www.w3.org/2000/svg"
   xmlns:svg="http://www.w3.org/2000/svg">
  <sodipodi:namedview
     id="namedview104"
     pagecolor="#ffffff"
     bordercolor="#666666"
     borderopacity="1.0"
     inkscape:pageshadow="2"
     inkscape:pageopacity="0.0"
     inkscape:pagecheckerboard="0"
     showgrid="false"
     inkscape:zoom="1.1216667"
     inkscape:cx="235.80981"
     inkscape:cy="78.900446"
     inkscape:window-width="1850"
     inkscape:window-height="1016"
     inkscape:window-x="0"
     inkscape:window-y="0"
     inkscape:window-maximized="1"
     inkscape:current-layer="svg102" />
  <defs
     id="defs2" />
  <path
     stroke="none"
     fill="#f5e1b4"
     d="m 100.85,27.2 h 0.05 q 15.25,15.2 15.25,36.8 0,21.6 -15.25,36.95 L 100.85,101 Q 85.55,116.2 64,116.2 42.4,116.2 27.15,100.95 11.8,85.6 11.8,64 11.8,42.4 27.1,27.2 h 0.05 V 27.15 Q 42.4,11.85 64,11.85 q 21.6,0 36.85,15.3 V 27.2 M 64,15.85 q -19.75,0 -33.75,13.85 L 30,30 29.95,30.05 29.65,30.3 Q 15.8,44.25 15.8,64 q 0,19.95 14.15,34.1 14.1,14.1 34.05,14.1 19.9,0 34,-14.05 l 0.05,-0.05 q 14.1,-14.15 14.1,-34.1 0,-19.75 -13.8,-33.7 l -0.3,-0.25 V 30 l -0.3,-0.3 Q 83.75,15.85 64,15.85"
     id="path66" />
  <path
     stroke="none"
     fill="#fff3d9"
     d="m 64,15.85 q 19.75,0 33.75,13.85 l 0.3,0.3 v 0.05 l 0.3,0.25 q 13.8,13.95 13.8,33.7 0,19.95 -14.1,34.1 L 98,98.15 Q 83.9,112.2 64,112.2 44.05,112.2 29.95,98.1 15.8,83.95 15.8,64 15.8,44.25 29.65,30.3 L 29.95,30.05 30,30 30.25,29.7 Q 44.25,15.85 64,15.85"
     id="path68" />
  <path
     stroke="none"
     fill="#d9944f"
     d="m 102.3,25.8 q 15.85,15.8 15.85,38.2 0,22.45 -15.85,38.35 Q 86.45,118.2 64,118.2 41.55,118.2 25.7,102.35 9.8,86.45 9.8,64 9.8,41.6 25.7,25.8 l 0.05,-0.05 Q 41.55,9.85 64,9.85 q 22.45,0 38.3,15.9 v 0.05 m -1.45,1.4 V 27.15 Q 85.6,11.85 64,11.85 q -21.6,0 -36.85,15.3 V 27.2 H 27.1 Q 11.8,42.4 11.8,64 q 0,21.6 15.35,36.95 15.25,15.25 36.85,15.25 21.55,0 36.85,-15.2 l 0.05,-0.05 Q 116.15,85.6 116.15,64 q 0,-21.6 -15.25,-36.8 h -0.05"
     id="path70" />
  <path
     stroke="none"
     fill="#bb8044"
     d="M 102.3,25.8 V 25.75 Q 86.45,9.85 64,9.85 41.55,9.85 25.75,25.75 L 25.7,25.8 Q 9.8,41.6 9.8,64 q 0,22.45 15.9,38.35 15.85,15.85 38.3,15.85 22.45,0 38.3,-15.85 15.85,-15.9 15.85,-38.35 0,-22.4 -15.85,-38.2 m 5.65,-5.7 q 18.2,18.15 18.2,43.9 0,25.75 -18.2,44 Q 89.75,126.2 64,126.2 38.25,126.2 20.05,108 1.8,89.75 1.8,64 1.8,38.25 20.05,20.1 38.25,1.85 64,1.85 q 25.75,0 43.95,18.25"
     id="path72" />
  <path
     stroke="none"
     fill="#82592f"
     d="M 107.95,20.1 Q 89.75,1.85 64,1.85 38.25,1.85 20.05,20.1 1.8,38.25 1.8,64 q 0,25.75 18.25,44 18.2,18.2 43.95,18.2 25.75,0 43.95,-18.2 18.2,-18.25 18.2,-44 0,-25.75 -18.2,-43.9 M 128,64 q 0,26.55 -18.75,45.25 Q 90.5,128 64,128 37.5,128 18.75,109.25 0,90.55 0,64 0,37.5 18.75,18.75 37.5,0 64,0 90.5,0 109.25,18.75 128,37.5 128,64"
     id="path74" />
</svg>
