<?xml version="1.0" encoding="UTF-8" standalone="no"?>
<svg
   version="1.1"
   id="svg102"
   sodipodi:docname="letterTiles_vector (autre copie).svg"
   width="128"
   height="128"
   inkscape:version="1.1.2 (0a00cf5339, 2022-02-04)"
   xmlns:inkscape="http://www.inkscape.org/namespaces/inkscape"
   xmlns:sodipodi="http://sodipodi.sourceforge.net/DTD/sodipodi-0.dtd"
   xmlns="http://www.w3.org/2000/svg"
   xmlns:svg="http://www.w3.org/2000/svg">
  <sodipodi:namedview
     id="namedview104"
     pagecolor="#ffffff"
     bordercolor="#666666"
     borderopacity="1.0"
     inkscape:pageshadow="2"
     inkscape:pageopacity="0.0"
     inkscape:pagecheckerboard="0"
     showgrid="false"
     inkscape:zoom="1.4721875"
     inkscape:cx="399.74528"
     inkscape:cy="50.604967"
     inkscape:window-width="1850"
     inkscape:window-height="1016"
     inkscape:window-x="0"
     inkscape:window-y="0"
     inkscape:window-maximized="1"
     inkscape:current-layer="svg102" />
  <defs
     id="defs2" />
  <path
     stroke="none"
     fill="#eefffb"
     d="M 64.05,14.55 115,40.05 V 88 L 64.05,113.5 13,87.95 V 40.05 L 64.05,14.55 M 64.05,19 17,42.55 V 85.5 L 64.05,109 111,85.5 v -43 L 64.05,19"
     id="path22" />
  <path
     stroke="none"
     fill="#e0f0ed"
     d="M 64.05,19 111,42.5 v 43 L 64.05,109 17,85.5 V 42.55 L 64.05,19"
     id="path24" />
  <path
     stroke="none"
     fill="#d177f5"
     d="m 64.05,11.2 53.95,27 v 51.65 l -53.95,27 L 10,89.8 V 38.2 l 54.05,-27 m 0,3.35 L 13,40.05 v 47.9 L 64.05,113.5 115,88 V 40.05 L 64.05,14.55"
     id="path26" />
  <path
     stroke="none"
     fill="#b165d0"
     d="m 64.05,2.25 61.95,31 v 61.5 l -61.95,31 L 2,94.75 v -61.5 l 62.05,-31 m 0,8.95 -54.05,27 v 51.6 l 54.05,27.05 53.95,-27 V 38.2 l -53.95,-27"
     id="path28" />
  <path
     stroke="none"
     fill="#7b4691"
     d="M 64.05,0 128,32 V 96 L 64.05,128 0,96 V 32 L 64.05,0 m 0,2.25 -62.05,31 v 61.5 l 62.05,31 61.95,-31 v -61.5 l -61.95,-31"
     id="path30" />
</svg>
