<?xml version="1.0" encoding="UTF-8" standalone="no"?>
<svg
   version="1.1"
   id="svg102"
   sodipodi:docname="letterTiles_vector (copie).svg"
   width="128"
   height="128"
   inkscape:version="1.1.2 (0a00cf5339, 2022-02-04)"
   xmlns:inkscape="http://www.inkscape.org/namespaces/inkscape"
   xmlns:sodipodi="http://sodipodi.sourceforge.net/DTD/sodipodi-0.dtd"
   xmlns="http://www.w3.org/2000/svg"
   xmlns:svg="http://www.w3.org/2000/svg">
  <sodipodi:namedview
     id="namedview104"
     pagecolor="#ffffff"
     bordercolor="#666666"
     borderopacity="1.0"
     inkscape:pageshadow="2"
     inkscape:pageopacity="0.0"
     inkscape:pagecheckerboard="0"
     showgrid="false"
     inkscape:zoom="1.3462875"
     inkscape:cx="304.16979"
     inkscape:cy="81.33478"
     inkscape:window-width="1850"
     inkscape:window-height="1016"
     inkscape:window-x="0"
     inkscape:window-y="0"
     inkscape:window-maximized="1"
     inkscape:current-layer="svg102" />
  <defs
     id="defs2" />
  <path
     stroke="none"
     fill="#2ecc71"
     d="m 110,22.45 v 83.1 q 0,4.45 -4.5,4.45 H 22.45 Q 18,110 18,105.55 v -83.1 q 0,-2.3 0.95,-3.5 1.2,-0.95 3.5,-0.95 h 83.05 q 4.5,0 4.5,4.45"
     id="path94" />
  <path
     stroke="none"
     fill="#31de7b"
     d="M 110,22.45 Q 110,18 105.5,18 H 22.45 q -2.3,0 -3.5,0.95 -0.95,1.2 -0.95,3.5 v 83.1 q 0,4.45 4.45,4.45 h 83.05 q 4.5,0 4.5,-4.45 V 22.45 M 105.5,12 Q 116,12 116,22.45 v 83.1 Q 116,116 105.5,116 H 22.45 Q 12,116 12,105.55 v -83.1 q 0,-5.2 2.7,-7.75 2.55,-2.7 7.75,-2.7 h 83.05"
     id="path96" />
  <path
     stroke="none"
     fill="#2bc26b"
     d="M 105.5,2 Q 126,2 126,22.45 v 83.1 q 0,14 -9.55,18.4 Q 112,126 105.5,126 H 22.45 Q 16,126 11.55,123.95 2,119.55 2,105.55 V 22.45 Q 2,2 22.45,2 h 83.05 m 0,10 H 22.45 q -5.2,0 -7.75,2.7 -2.7,2.55 -2.7,7.75 v 83.1 Q 12,116 22.45,116 H 105.5 Q 116,116 116,105.55 V 22.45 Q 116,12 105.5,12"
     id="path98" />
  <path
     stroke="none"
     fill="#208e4f"
     d="M 22.45,0 H 105.5 Q 128,0 128,22.45 v 83.1 q 0,12.9 -7.45,18.4 -5.5,4.05 -15.05,4.05 H 22.45 q -9.55,0 -15,-4.05 -3.65,-2.7 -5.5,-7.1 Q 0,112.15 0,105.55 V 22.45 Q 0,15.85 1.95,11.2 6.6,0 22.45,0 M 105.5,2 H 22.45 Q 2,2 2,22.45 v 83.1 q 0,14 9.55,18.4 Q 16,126 22.45,126 h 83.05 q 6.5,0 10.95,-2.05 9.55,-4.4 9.55,-18.4 V 22.45 Q 126,2 105.5,2"
     id="path100" />
</svg>
