<?xml version="1.0" encoding="UTF-8" standalone="no"?>
<svg
   version="1.1"
   id="svg102"
   sodipodi:docname="letterTiles_vector (3e copie).svg"
   width="128"
   height="128"
   inkscape:version="1.1.2 (0a00cf5339, 2022-02-04)"
   xmlns:inkscape="http://www.inkscape.org/namespaces/inkscape"
   xmlns:sodipodi="http://sodipodi.sourceforge.net/DTD/sodipodi-0.dtd"
   xmlns="http://www.w3.org/2000/svg"
   xmlns:svg="http://www.w3.org/2000/svg">
  <sodipodi:namedview
     id="namedview104"
     pagecolor="#ffffff"
     bordercolor="#666666"
     borderopacity="1.0"
     inkscape:pageshadow="2"
     inkscape:pageopacity="0.0"
     inkscape:pagecheckerboard="0"
     showgrid="false"
     inkscape:zoom="1.1216667"
     inkscape:cx="150.22288"
     inkscape:cy="75.334324"
     inkscape:window-width="1850"
     inkscape:window-height="1016"
     inkscape:window-x="0"
     inkscape:window-y="0"
     inkscape:window-maximized="1"
     inkscape:current-layer="svg102" />
  <defs
     id="defs2" />
  <path
     stroke="none"
     fill="#5f7274"
     d="m 3.65,0 h 120.7 Q 128,0 128,3.6 v 120.75 q 0,3.65 -3.65,3.65 H 3.65 Q 0,128 0,124.35 V 3.6 Q 0,0 3.65,0 m 120.7,2 H 3.65 Q 2,2 2,3.6 V 124.35 Q 2,126 3.65,126 h 120.7 q 1.65,0 1.65,-1.65 V 3.6 Q 126,2 124.35,2"
     id="path56" />
  <path
     stroke="none"
     fill="#89a4a6"
     d="M 124.35,2 Q 126,2 126,3.6 v 120.75 q 0,1.65 -1.65,1.65 H 3.65 Q 2,126 2,124.35 V 3.6 Q 2,2 3.65,2 h 120.7 M 14,14 V 114 H 114 V 14 H 14"
     id="path58" />
  <path
     stroke="none"
     fill="#add0d2"
     d="M 14,14 H 114 V 114 H 14 V 14 m 2,98 h 96 V 16 H 16 v 96"
     id="path60" />
  <path
     stroke="none"
     fill="#aa743e"
     d="M 16,112 V 16 h 96 v 96 H 16 m 92,-4 V 20 H 20 v 88 h 88"
     id="path62" />
  <path
     stroke="none"
     fill="#bb8044"
     d="M 108,108 H 20 V 20 h 88 v 88"
     id="path64" />
</svg>
