<?xml version="1.0" encoding="UTF-8" standalone="no"?>
<svg
   version="1.1"
   id="svg102"
   sodipodi:docname="letter2.svg"
   width="128"
   height="128.05"
   inkscape:version="1.1.2 (0a00cf5339, 2022-02-04)"
   xmlns:inkscape="http://www.inkscape.org/namespaces/inkscape"
   xmlns:sodipodi="http://sodipodi.sourceforge.net/DTD/sodipodi-0.dtd"
   xmlns="http://www.w3.org/2000/svg"
   xmlns:svg="http://www.w3.org/2000/svg">
  <sodipodi:namedview
     id="namedview104"
     pagecolor="#ffffff"
     bordercolor="#666666"
     borderopacity="1.0"
     inkscape:pageshadow="2"
     inkscape:pageopacity="0.0"
     inkscape:pagecheckerboard="0"
     showgrid="false"
     inkscape:zoom="1.6086326"
     inkscape:cx="147.64092"
     inkscape:cy="103.50406"
     inkscape:window-width="1850"
     inkscape:window-height="1016"
     inkscape:window-x="0"
     inkscape:window-y="0"
     inkscape:window-maximized="1"
     inkscape:current-layer="svg102" />
  <defs
     id="defs2" />
  <path
     stroke="none"
     fill="#bb3b2f"
     d="m 69.5,2.75 55.75,55.8 q 5.5,5.5 0,11 L 69.5,125.3 q -5.5,5.5 -11,0 L 2.75,69.5 q -5.5,-5.5 0,-11 L 58.5,2.75 q 5.5,-5.5 11,0 M 123.85,60 68.1,4.2 Q 64,0.1 59.95,4.2 L 4.2,59.95 Q 0.1,64 4.2,68.1 l 55.75,55.8 q 4.05,4.05 8.15,0 l 55.75,-55.75 q 4.05,-4.1 0,-8.15"
     id="path86" />
  <path
     stroke="none"
     fill="#e74c3c"
     d="m 123.85,60 q 4.05,4.05 0,8.15 L 68.1,123.9 q -4.1,4.05 -8.15,0 L 4.2,68.1 Q 0.1,64 4.2,59.95 L 59.95,4.2 Q 64,0.1 68.1,4.2 L 123.85,60 M 64,11.4 11.4,64 64,116.65 116.6,64.05 64,11.4"
     id="path88" />
  <path
     stroke="none"
     fill="#ff6151"
     d="M 64,11.4 116.6,64.05 64,116.65 11.4,64 64,11.4 M 64,14.25 14.25,64 64,113.8 113.75,64.05 64,14.25"
     id="path90" />
  <path
     stroke="none"
     fill="#e0f0ed"
     d="M 64,14.25 113.75,64.05 64,113.8 14.25,64 64,14.25"
     id="path92" />
</svg>
