<?xml version="1.0" encoding="UTF-8" standalone="no"?>
<svg
   viewBox="256 128 512 512"
   version="1.1"
   id="svg12"
   sodipodi:docname="guy.svg"
   inkscape:version="1.1.2 (0a00cf5339, 2022-02-04)"
   xmlns:inkscape="http://www.inkscape.org/namespaces/inkscape"
   xmlns:sodipodi="http://sodipodi.sourceforge.net/DTD/sodipodi-0.dtd"
   xmlns="http://www.w3.org/2000/svg"
   xmlns:svg="http://www.w3.org/2000/svg">
  <sodipodi:namedview
     id="namedview14"
     pagecolor="#ffffff"
     bordercolor="#666666"
     borderopacity="1.0"
     inkscape:pageshadow="2"
     inkscape:pageopacity="0.0"
     inkscape:pagecheckerboard="0"
     showgrid="false"
     inkscape:zoom="1.5273438"
     inkscape:cx="255.67263"
     inkscape:cy="255.67263"
     inkscape:window-width="1850"
     inkscape:window-height="1016"
     inkscape:window-x="0"
     inkscape:window-y="0"
     inkscape:window-maximized="1"
     inkscape:current-layer="svg12" />
  <defs
     id="defs2" />
  <g
     id="g10"
     transform="matrix(10.042279,0,0,9.8450781,-3670.687,-1201.5778)">
    <path
       stroke="none"
       fill="#f3f3f3"
       d="m 406.9,151.8 q 9.7,7.2 19.5,0.1 l 10.95,6.25 q 1.9,1.05 2.45,3.1 0.55,2.05 -0.55,3.9 l -0.35,0.6 q -1.05,1.85 -3.1,2.4 -2.15,0.55 -4,-0.5 l -6.15,-3.55 0.15,0.2 0.8,1.7 3.35,12.35 q 0.55,2.05 -0.6,3.95 -1.05,1.8 -3.1,2.4 l -0.65,0.15 q -2.1,0.55 -4,-0.5 -1.85,-1.1 -2.4,-3.15 l -1.8,-6.7 h -1.8 l -1.8,6.7 q -0.55,2.05 -2.45,3.15 -1.85,1.05 -3.9,0.5 l -0.65,-0.15 q -2.15,-0.6 -3.2,-2.4 -1.05,-1.9 -0.5,-3.95 L 406.45,166 q 0.25,-0.95 0.8,-1.7 l 0.15,-0.2 -6.2,3.55 q -1.9,1.05 -3.95,0.5 -2.1,-0.55 -3.2,-2.4 l -0.35,-0.6 q -1.05,-1.85 -0.5,-3.9 0.55,-2.05 2.45,-3.1 l 11.2,-6.35 h 0.05 m 1.85,-1.25 q -1.25,-2.05 -1.25,-4.55 0,-3.7 2.65,-6.3 2.65,-2.65 6.35,-2.65 3.75,0 6.35,2.65 2.65,2.6 2.65,6.3 0,2.5 -1.2,4.55 -7.8,4.95 -15.55,0"
       id="path4" />
    <path
       stroke="none"
       fill="#e7e7e7"
       d="m 408.75,150.55 q 7.75,4.95 15.55,0 l 1.9,1.25 0.2,0.1 q -9.8,7.1 -19.5,-0.1 l 1.85,-1.25"
       id="path6" />
    <path
       stroke="none"
       fill="#b6b6b6"
       d="m 394.7,156.4 11.2,-6.35 0.2,-0.1 0.1,-0.05 q -0.7,-1.85 -0.7,-3.9 0,-4.55 3.25,-7.7 3.2,-3.25 7.75,-3.25 4.55,0 7.75,3.25 h 0.05 q 3.2,3.2 3.2,7.7 0,2.05 -0.65,3.85 l 0.4,0.25 -0.05,-0.05 11.15,6.35 q 2.6,1.45 3.4,4.35 0.75,2.85 -0.75,5.45 v -0.05 l -0.35,0.6 q -1.45,2.55 -4.3,3.35 h -0.05 q -2.95,0.75 -5.45,-0.7 h -0.05 l -1.45,-0.85 2.55,9.3 q 0.75,2.85 -0.85,5.5 l 0.05,-0.05 q -1.45,2.5 -4.3,3.35 h -0.1 l -0.65,0.15 h 0.05 q -2.85,0.75 -5.45,-0.7 h -0.05 q -2.55,-1.55 -3.3,-4.35 l -0.8,-2.9 -0.75,2.9 q -0.75,2.8 -3.4,4.35 -2.55,1.45 -5.35,0.7 l -0.65,-0.15 h -0.1 q -2.95,-0.85 -4.35,-3.35 h -0.05 q -1.45,-2.65 -0.65,-5.45 l 2.5,-9.3 -1.5,0.85 q -2.65,1.45 -5.45,0.7 -2.9,-0.8 -4.4,-3.3 v -0.05 l -0.35,-0.6 h -0.05 q -1.45,-2.6 -0.65,-5.4 0.75,-2.9 3.4,-4.35 m 12.2,-4.6 h -0.05 l -11.2,6.35 q -1.9,1.05 -2.45,3.1 -0.55,2.05 0.5,3.9 l 0.35,0.6 q 1.1,1.85 3.2,2.4 2.05,0.55 3.95,-0.5 l 6.2,-3.55 -0.15,0.2 q -0.55,0.75 -0.8,1.7 l -3.35,12.35 q -0.55,2.05 0.5,3.95 1.05,1.8 3.2,2.4 l 0.65,0.15 q 2.05,0.55 3.9,-0.5 1.9,-1.1 2.45,-3.15 l 1.8,-6.7 h 1.8 l 1.8,6.7 q 0.55,2.05 2.4,3.15 1.9,1.05 4,0.5 l 0.65,-0.15 q 2.05,-0.6 3.1,-2.4 1.15,-1.9 0.6,-3.95 L 426.6,166 l -0.8,-1.7 -0.15,-0.2 6.15,3.55 q 1.85,1.05 4,0.5 2.05,-0.55 3.1,-2.4 l 0.35,-0.6 q 1.1,-1.85 0.55,-3.9 -0.55,-2.05 -2.45,-3.1 l -10.95,-6.25 -0.2,-0.1 -1.9,-1.25 q 1.2,-2.05 1.2,-4.55 0,-3.7 -2.65,-6.3 -2.6,-2.65 -6.35,-2.65 -3.7,0 -6.35,2.65 -2.65,2.6 -2.65,6.3 0,2.5 1.25,4.55 l -1.85,1.25"
       id="path8" />
  </g>
</svg>
